<svg width="20" height="14" viewBox="0 0 20 14" fill="none" xmlns="http://www.w3.org/2000/svg">
<g clip-path="url(#clip0_13_1789)">
<g clip-path="url(#clip1_13_1789)">
<path d="M9.99995 1C13.7 1 17 4.2 18.7 6C19.1 6.5 19.1 7.4 18.7 7.9C17 9.8 13.7 12.9 9.99995 12.9C6.29995 12.9 2.99995 9.8 1.29995 8C0.899951 7.5 0.899951 6.5 1.29995 6C2.99995 4.2 6.29995 1 9.99995 1ZM9.99995 0C5.89995 0 2.39995 3.3 0.599951 5.4C-0.100049 6.2 -0.100049 7.8 0.599951 8.6C2.39995 10.7 5.89995 14 9.99995 14C14.1 14 17.6 10.7 19.4 8.6C20.1 7.8 20.1 6.2 19.4 5.4C17.6 3.3 14.1 0 9.99995 0Z" fill="black"/>
<path d="M10 4C11.7 4 13 5.3 13 7C13 8.7 11.7 10 10 10C8.3 10 7 8.6 7 7C7 5.4 8.3 4 10 4ZM10 3C7.8 3 6 4.8 6 7C6 9.2 7.8 11 10 11C12.2 11 14 9.2 14 7C14 4.8 12.2 3 10 3Z" fill="black"/>
</g>
</g>
<defs>
<clipPath id="clip0_13_1789">
<rect width="20" height="14" fill="white"/>
</clipPath>
<clipPath id="clip1_13_1789">
<rect width="20" height="14" fill="white"/>
</clipPath>
</defs>
</svg>
