<svg width="14" height="12" viewBox="0 0 14 12" fill="none" xmlns="http://www.w3.org/2000/svg">
<path d="M14 8.75V11.25C14 11.4583 13.9271 11.6354 13.7812 11.7812C13.6354 11.9271 13.4583 12 13.25 12H10.75C10.5417 12 10.3646 11.9271 10.2188 11.7812C10.0729 11.6354 10 11.4583 10 11.25V8.75C10 8.54167 10.0729 8.36458 10.2188 8.21875C10.3646 8.07292 10.5417 8 10.75 8H11.5V6.5H7.5V8H8.25C8.45833 8 8.63542 8.07292 8.78125 8.21875C8.92708 8.36458 9 8.54167 9 8.75V11.25C9 11.4583 8.92708 11.6354 8.78125 11.7812C8.63542 11.9271 8.45833 12 8.25 12H5.75C5.54167 12 5.36458 11.9271 5.21875 11.7812C5.07292 11.6354 5 11.4583 5 11.25V8.75C5 8.54167 5.07292 8.36458 5.21875 8.21875C5.36458 8.07292 5.54167 8 5.75 8H6.5V6.5H2.5V8H3.25C3.45833 8 3.63542 8.07292 3.78125 8.21875C3.92708 8.36458 4 8.54167 4 8.75V11.25C4 11.4583 3.92708 11.6354 3.78125 11.7812C3.63542 11.9271 3.45833 12 3.25 12H0.75C0.541667 12 0.364583 11.9271 0.21875 11.7812C0.0729167 11.6354 0 11.4583 0 11.25V8.75C0 8.54167 0.0729167 8.36458 0.21875 8.21875C0.364583 8.07292 0.541667 8 0.75 8H1.5V6.5C1.5 6.22917 1.59896 5.99479 1.79688 5.79688C1.99479 5.59896 2.22917 5.5 2.5 5.5H6.5V4H5.75C5.54167 4 5.36458 3.92708 5.21875 3.78125C5.07292 3.63542 5 3.45833 5 3.25V0.75C5 0.541667 5.07292 0.364583 5.21875 0.21875C5.36458 0.072917 5.54167 0 5.75 0H8.25C8.45833 0 8.63542 0.072917 8.78125 0.21875C8.92708 0.364583 9 0.541667 9 0.75V3.25C9 3.45833 8.92708 3.63542 8.78125 3.78125C8.63542 3.92708 8.45833 4 8.25 4H7.5V5.5H11.5C11.7708 5.5 12.0052 5.59896 12.2031 5.79688C12.401 5.99479 12.5 6.22917 12.5 6.5V8H13.25C13.4583 8 13.6354 8.07292 13.7812 8.21875C13.9271 8.36458 14 8.54167 14 8.75Z" fill="white"/>
</svg>
