<svg width="49" height="48" viewBox="0 0 49 48" fill="none" xmlns="http://www.w3.org/2000/svg">
<g clip-path="url(#clip0_5_340)">
<g clip-path="url(#clip1_5_340)">
<mask id="mask0_5_340" style="mask-type:alpha" maskUnits="userSpaceOnUse" x="3" y="0" width="42" height="51">
<path fill-rule="evenodd" clip-rule="evenodd" d="M3.9209 0.308899H44.1382V50.3089H3.9209V0.308899Z" fill="white"/>
</mask>
<g mask="url(#mask0_5_340)">
<path fill-rule="evenodd" clip-rule="evenodd" d="M40.4269 16.7304L41.0462 13.6098C41.0658 13.6174 41.0882 13.6251 41.1097 13.6329L41.1114 13.6337C41.1243 13.6388 41.138 13.6431 41.1518 13.6482H41.1535C41.1535 13.6482 41.1535 13.6491 41.1543 13.6491C41.1785 13.6568 41.2025 13.6636 41.2248 13.6696C41.2265 13.6696 41.2282 13.6705 41.2309 13.6705C41.2549 13.6772 41.2772 13.6832 41.2969 13.6875L41.2943 13.6867C41.3106 13.6918 41.327 13.6951 41.3434 13.6995C41.3434 13.6995 41.3442 13.6995 41.3451 13.6995C41.3733 13.7055 41.3982 13.7097 41.4232 13.7139C41.4464 13.7174 41.4662 13.7199 41.4851 13.7225C41.5031 13.7259 41.5211 13.7285 41.54 13.7303C41.5408 13.7303 41.5417 13.7311 41.5426 13.7311H41.5443C41.5547 13.7319 41.5657 13.7328 41.5769 13.7336C41.6328 13.7387 41.6894 13.7413 41.7453 13.7413C41.7788 13.7413 41.8114 13.7405 41.8449 13.7387C41.8552 13.7387 41.8655 13.7371 41.875 13.7362C41.899 13.7354 41.9223 13.7336 41.9463 13.7311H41.948L41.9488 13.7303C41.9668 13.7285 41.984 13.7259 42.0047 13.7225C42.0236 13.7199 42.045 13.7174 42.0674 13.7139C42.0914 13.7097 42.1172 13.7055 42.1438 13.6995H42.1455C42.1627 13.696 42.1799 13.6918 42.1936 13.6875C42.1953 13.6867 42.197 13.6867 42.1988 13.6867C42.2168 13.6824 42.2366 13.6772 42.2598 13.6705C42.2624 13.6705 42.264 13.6696 42.2657 13.6696C42.2881 13.6636 42.3113 13.6568 42.3362 13.6491L42.337 13.6482H42.3388C42.3508 13.6439 42.3645 13.6388 42.3782 13.6337C42.4049 13.6243 42.429 13.6158 42.4504 13.6072C42.4513 13.6072 42.4513 13.6063 42.4522 13.6063C42.4693 13.5995 42.4848 13.5935 42.5011 13.5867L43.1152 16.7304H40.4269ZM41.7453 11.0812C42.1601 11.0812 42.4968 11.4169 42.4968 11.8286C42.4968 12.0166 42.4255 12.196 42.2958 12.3353C42.2615 12.372 42.2237 12.4061 42.1825 12.4351C42.1825 12.436 42.1816 12.436 42.1816 12.436C42.1695 12.4446 42.1584 12.4514 42.1464 12.4591C42.1378 12.4643 42.1301 12.4694 42.1215 12.4754C42.1206 12.4754 42.1198 12.4762 42.1198 12.4762L42.1172 12.477C42.1163 12.4779 42.1154 12.4787 42.1147 12.4787C42.0974 12.4882 42.0794 12.4975 42.0579 12.5078L42.0562 12.5086C42.0537 12.5104 42.0493 12.5121 42.045 12.5137C42.0278 12.5206 42.0106 12.5274 41.9926 12.5334C41.9918 12.5343 41.9901 12.5343 41.9883 12.5351C41.9841 12.5376 41.978 12.5394 41.9729 12.5411C41.9661 12.5429 41.9591 12.5445 41.9523 12.5462C41.9419 12.5488 41.9309 12.5522 41.9188 12.5548L41.9179 12.5556C41.9119 12.5564 41.905 12.5591 41.8973 12.5608C41.8836 12.5633 41.8698 12.565 41.8552 12.5668C41.8518 12.5676 41.8475 12.5684 41.8432 12.5684C41.8363 12.5701 41.8277 12.571 41.8191 12.5728C41.7942 12.5753 41.7685 12.577 41.7453 12.577C41.7213 12.577 41.6963 12.5753 41.6705 12.5728H41.6689C41.6611 12.571 41.6542 12.5701 41.6474 12.5684C41.6353 12.5676 41.6242 12.5659 41.613 12.5642C41.6062 12.5633 41.5992 12.5624 41.5924 12.5608C41.5864 12.5591 41.5787 12.5573 41.5718 12.5556C41.5692 12.5548 41.5666 12.5539 41.5632 12.5531C41.5486 12.5496 41.5323 12.5454 41.5177 12.5411C41.5116 12.5385 41.5065 12.5369 41.5014 12.5351C41.4919 12.5317 41.4833 12.5283 41.4756 12.5257C41.4653 12.5214 41.455 12.5181 41.4455 12.5137L41.4438 12.513L41.4369 12.5095L41.4335 12.5086C41.4224 12.5026 41.4112 12.4984 41.4026 12.4933C41.3931 12.4889 41.3837 12.4838 41.3751 12.4787C41.3742 12.4779 41.3725 12.477 41.3708 12.4762L41.37 12.4754C41.3605 12.4703 41.3528 12.4643 41.3442 12.4591C41.333 12.4514 41.3201 12.4437 41.3081 12.436C41.2678 12.4061 41.2291 12.372 41.1948 12.3353C41.0642 12.196 40.9929 12.0166 40.9929 11.8286C40.9929 11.4169 41.3304 11.0812 41.7453 11.0812ZM34.1949 7.36952L23.9011 10.256C23.8925 10.256 23.8839 10.256 23.8753 10.256L21.503 9.59056L13.5816 7.36952L8.24788 5.87374L23.8736 1.49148C23.883 1.49148 23.8934 1.49148 23.9028 1.49148L39.5276 5.87374L34.1949 7.36952ZM33.767 13.8592C33.7507 14.1462 33.0774 14.8783 31.3458 15.6223C31.29 15.6462 31.2325 15.6703 31.175 15.6942L31.1741 15.6949L31.1492 15.7044C31.1012 15.7249 31.0504 15.7445 30.9998 15.765L30.9542 15.783C30.9104 15.8 30.8666 15.8171 30.8219 15.8334L30.8211 15.8342L30.7644 15.8556C30.7232 15.8709 30.6811 15.8872 30.639 15.9025L30.5738 15.9256C30.5333 15.9393 30.4939 15.9547 30.4527 15.9692L30.3831 15.9939C30.3436 16.0076 30.3024 16.0213 30.2612 16.0349L30.1864 16.0597C30.1461 16.0734 30.1056 16.0871 30.0653 16.0999L29.9898 16.1247C29.9485 16.1374 29.9064 16.1503 29.8652 16.1631L29.7862 16.187L29.6607 16.2255L29.58 16.2494C29.5378 16.2613 29.4941 16.2733 29.4529 16.2853L29.3704 16.3083C29.3266 16.3211 29.282 16.3331 29.239 16.3442L29.1583 16.3664C29.1137 16.3784 29.0664 16.3904 29.0217 16.4023L28.9411 16.4228C28.8989 16.4331 28.8551 16.4442 28.813 16.4544C28.8079 16.4552 28.8036 16.457 28.7985 16.4579L28.722 16.4766C28.6705 16.4894 28.6173 16.5013 28.564 16.5133L28.4987 16.5287C28.4368 16.5432 28.3732 16.5569 28.3106 16.5706H28.308L28.2728 16.5792C28.1182 16.6116 27.9611 16.6441 27.8073 16.6731L27.7412 16.685C27.6853 16.6953 27.6287 16.7064 27.5711 16.7167L27.4869 16.7311C27.4852 16.7311 27.4843 16.732 27.4826 16.732C27.4328 16.7406 27.383 16.7491 27.334 16.7576H27.3324L27.2387 16.7731C27.1906 16.7807 27.1407 16.7884 27.0927 16.7961L26.9897 16.8114C26.9432 16.8183 26.8952 16.8251 26.8479 16.832L26.7414 16.8464C26.6959 16.8533 26.6487 16.8593 26.6014 16.8653L26.4924 16.8789C26.4468 16.8841 26.3995 16.8909 26.3532 16.896C26.3163 16.9011 26.2785 16.9055 26.2406 16.9088C26.1943 16.9139 26.1479 16.9199 26.1006 16.9243L25.9873 16.9362C25.941 16.9413 25.8937 16.9447 25.8465 16.9498C25.8087 16.9533 25.77 16.9567 25.7323 16.9601C25.685 16.9644 25.6361 16.9678 25.5897 16.9721C25.5879 16.9721 25.5853 16.973 25.5837 16.973L25.4745 16.9814C25.4265 16.9849 25.3783 16.9883 25.3303 16.9917L25.2135 16.9994C25.1645 17.002 25.1164 17.0054 25.0666 17.008L24.9524 17.0139C24.9026 17.0164 24.851 17.0191 24.8012 17.0208L24.6895 17.0259C24.6405 17.0276 24.5916 17.0293 24.5427 17.031H24.5298L24.4241 17.0344C24.3726 17.0353 24.3176 17.037 24.2652 17.0379H24.2447L24.157 17.0396C24.0677 17.0404 23.9783 17.0412 23.8882 17.0412C23.7989 17.0412 23.7087 17.0404 23.6202 17.0396L23.5317 17.0379H23.5112C23.4579 17.037 23.4055 17.0353 23.3523 17.0344L23.2466 17.031H23.2337C23.1856 17.0293 23.1358 17.0276 23.0877 17.0259L22.9761 17.0208H22.9631C22.9168 17.0182 22.8704 17.0164 22.824 17.0139L22.7098 17.008C22.66 17.0054 22.6111 17.002 22.562 16.9994L22.4469 16.9917C22.3989 16.9883 22.35 16.9849 22.3018 16.9814L22.1876 16.9721C22.1395 16.9678 22.0923 16.9644 22.045 16.9601C22.0064 16.9567 21.9686 16.9533 21.9307 16.9498C21.8835 16.9447 21.8354 16.9413 21.79 16.9362L21.6766 16.925L21.6757 16.9243C21.6285 16.9199 21.5829 16.9139 21.5357 16.9088C21.4988 16.9055 21.461 16.9011 21.424 16.896C21.3776 16.8909 21.3304 16.8849 21.284 16.8789L21.175 16.8653C21.1286 16.8593 21.0814 16.8533 21.035 16.8464L20.9276 16.832C20.8804 16.8251 20.834 16.8183 20.7867 16.8114L20.6854 16.7961L20.5437 16.7738L20.5403 16.7731L20.4432 16.7576C20.3951 16.7491 20.3462 16.7414 20.2972 16.732H20.2938L20.2903 16.7311L20.2053 16.7167C20.1486 16.7064 20.0911 16.6953 20.0352 16.685L19.97 16.6731C19.8153 16.6432 19.6581 16.6116 19.5044 16.5792L19.4675 16.5706C19.4031 16.5569 19.3404 16.5432 19.2786 16.5287L19.2116 16.5133C19.1592 16.5013 19.1076 16.4894 19.0552 16.4766L18.9788 16.4579C18.9316 16.4459 18.8826 16.4347 18.8354 16.4228L18.7564 16.4023C18.71 16.3904 18.6636 16.3784 18.618 16.3664L18.5382 16.3442C18.4936 16.3331 18.4498 16.3211 18.406 16.3083L18.3252 16.2853C18.2814 16.2733 18.2385 16.2613 18.1964 16.2494L18.1955 16.2485L18.1156 16.2255L17.9902 16.1879L17.912 16.1631C17.8708 16.1503 17.8297 16.1374 17.7892 16.1247L17.7119 16.0999C17.6707 16.0871 17.6295 16.0734 17.5891 16.0597L17.5161 16.0358C17.4749 16.0213 17.4337 16.0076 17.3941 15.9939L17.3245 15.9692C17.2842 15.9547 17.2422 15.9401 17.2017 15.9256L17.1374 15.9025C17.0944 15.8872 17.0524 15.8709 17.0111 15.8556L16.9544 15.8342C16.9098 15.8162 16.8642 15.7992 16.8213 15.7821L16.7766 15.765C16.726 15.7445 16.6753 15.7241 16.6254 15.7035L16.6023 15.6942C16.5834 15.6864 16.5662 15.6787 16.5481 15.671C16.5087 15.6548 16.4691 15.6386 16.4314 15.6223C16.4314 15.6223 16.4305 15.6223 16.4305 15.6216C14.6981 14.8783 14.0265 14.1462 14.0093 13.8592C14.0084 13.8549 14.0084 13.8498 14.0076 13.8456V8.69958L21.1853 10.7122L23.6958 11.4161C23.7156 11.4221 23.7353 11.4255 23.756 11.4281C23.7628 11.4297 23.7688 11.4314 23.7756 11.4323C23.7851 11.4341 23.7937 11.4341 23.8031 11.4348C23.8203 11.4357 23.8375 11.4383 23.8547 11.4383C23.8659 11.4383 23.8779 11.4366 23.889 11.4357C23.9002 11.4366 23.9105 11.4383 23.9209 11.4383C23.938 11.4383 23.9552 11.4357 23.9724 11.4348C23.9827 11.4341 23.9913 11.4341 24.0007 11.4323C24.0076 11.4314 24.0144 11.4297 24.0204 11.4281C24.0342 11.4263 24.047 11.4237 24.0591 11.4204C24.0651 11.4195 24.0712 11.4186 24.0772 11.4169C24.078 11.4169 24.0789 11.4169 24.0798 11.4161L33.7679 8.69958V13.8456C33.7679 13.8498 33.767 13.8549 33.767 13.8592ZM23.8882 33.0489C18.4386 33.0489 14.005 28.6393 14.005 23.2192C14.005 20.8759 14.839 18.631 16.3601 16.8542L16.3901 16.8653C16.4374 16.8841 16.4863 16.9029 16.5353 16.9217L16.5963 16.9447C16.641 16.9618 16.6864 16.9789 16.7319 16.9951L16.8015 17.0199C16.8453 17.0361 16.8891 17.0516 16.9329 17.0669L16.9338 17.0678L17.0077 17.0934C17.0506 17.1087 17.0953 17.1233 17.1391 17.1386L17.2189 17.1651C17.2619 17.1788 17.3057 17.1933 17.3495 17.2079L17.4302 17.2335C17.474 17.248 17.5187 17.2617 17.5634 17.2754L17.6475 17.3009C17.6913 17.3146 17.7368 17.3283 17.7815 17.3411L17.8674 17.3668C17.912 17.3804 17.9576 17.3932 18.0031 17.406L18.0899 17.4299C18.137 17.4436 18.1843 17.4564 18.2307 17.4693L18.3166 17.4923C18.3647 17.5043 18.4128 17.5171 18.4617 17.5299L18.546 17.5512C18.5966 17.5649 18.649 17.5769 18.6997 17.5888L18.7795 17.6085C18.7804 17.6085 18.7804 17.6094 18.7804 17.6094C18.8354 17.6221 18.8912 17.6349 18.9462 17.6478L19.0175 17.6648C19.0836 17.6794 19.1514 17.6939 19.2185 17.7093L19.257 17.717C19.4194 17.752 19.5852 17.7861 19.7492 17.8169L19.8188 17.8306C19.878 17.8417 19.939 17.852 19.9984 17.8631L20.0876 17.8784L20.1031 17.881C20.152 17.8895 20.201 17.8981 20.2509 17.9066L20.3504 17.9229H20.353C20.3548 17.9229 20.3556 17.9237 20.3565 17.9237L20.5051 17.9476L20.6132 17.963C20.6623 17.9707 20.712 17.9784 20.7618 17.9853L20.8743 18.0006C20.9233 18.0074 20.974 18.0143 21.022 18.0203L21.1389 18.0356C21.1887 18.0416 21.2368 18.0475 21.2866 18.0535C21.3253 18.0579 21.3648 18.0621 21.4043 18.0663C21.4532 18.0723 21.5023 18.0774 21.5512 18.0825C21.5915 18.0869 21.6319 18.0911 21.6723 18.0954C21.722 18.1005 21.7702 18.1048 21.82 18.1091C21.8604 18.1133 21.9007 18.1168 21.9419 18.1201C21.9918 18.1245 22.0425 18.1296 22.0923 18.133L22.2142 18.1424C22.2649 18.1467 22.3155 18.15 22.3663 18.1535L22.4874 18.162C22.5389 18.1655 22.5913 18.168 22.6437 18.1714L22.7648 18.1774C22.8129 18.1799 22.8627 18.1825 22.9116 18.1843L22.9245 18.1851L23.0422 18.1903C23.0928 18.1919 23.1469 18.1936 23.1985 18.1954H23.2105L23.3222 18.1987C23.3772 18.2005 23.4347 18.2013 23.4905 18.2022L23.5112 18.2031L23.6039 18.2047C23.6975 18.2056 23.7937 18.2064 23.8882 18.2064C23.9827 18.2064 24.078 18.2056 24.1716 18.2047L24.2652 18.2031L24.2859 18.2022C24.3417 18.2013 24.3975 18.2005 24.4534 18.1987L24.565 18.1954H24.5788C24.6303 18.1936 24.6827 18.1919 24.7342 18.1903L24.8501 18.1851C24.9042 18.1825 24.9583 18.1799 25.0125 18.1774L25.1327 18.1714C25.1851 18.168 25.2357 18.1655 25.2881 18.162L25.4093 18.1544C25.4093 18.1544 25.4101 18.1544 25.4101 18.1535C25.4608 18.15 25.5115 18.1467 25.5622 18.1424L25.6841 18.133C25.7348 18.1296 25.7847 18.1245 25.8353 18.1201C25.8756 18.1168 25.9161 18.1133 25.9564 18.1091C26.0062 18.1048 26.0552 18.1005 26.1041 18.0954L26.2243 18.0825C26.2725 18.0774 26.3231 18.0723 26.3729 18.0663C26.4125 18.0621 26.4511 18.0579 26.4889 18.0535C26.5378 18.0475 26.5886 18.0416 26.6375 18.0356C26.6762 18.0305 26.7148 18.0262 26.7535 18.0203C26.8032 18.0143 26.8522 18.0074 26.9012 18.0006L27.0137 17.9853C27.0626 17.9784 27.1133 17.9707 27.1631 17.963L27.2714 17.9476C27.3229 17.9399 27.3736 17.9313 27.4242 17.9229L27.5255 17.9066C27.5788 17.8981 27.632 17.8886 27.6879 17.8784L27.7773 17.8631C27.8382 17.852 27.8975 17.8417 27.9567 17.8306L28.0263 17.8169C28.1903 17.7861 28.3561 17.7529 28.5202 17.7179L28.5605 17.7084C28.6266 17.6939 28.6937 17.6794 28.7589 17.6648L28.8293 17.6478L28.996 17.6094L29.0767 17.5897C29.0785 17.5888 29.0793 17.588 29.0811 17.588C29.0818 17.588 29.0836 17.588 29.0844 17.5871C29.1335 17.576 29.1806 17.5641 29.2297 17.5512L29.3147 17.5299C29.3627 17.5171 29.4109 17.5051 29.458 17.4923L29.5456 17.4693C29.5929 17.4573 29.6393 17.4428 29.6856 17.4299L29.7724 17.406C29.8179 17.3932 29.8635 17.3804 29.909 17.3668L29.9949 17.342C30.0395 17.3283 30.0851 17.3146 30.1298 17.3009L30.2122 17.2754C30.2568 17.2617 30.3006 17.248 30.3453 17.2343C30.3453 17.2343 30.3453 17.2335 30.3462 17.2335L30.4269 17.2079L30.5583 17.1651L30.5591 17.1643L30.6381 17.1386C30.6811 17.1233 30.7241 17.1087 30.7679 17.0934L30.8426 17.0678C30.8873 17.0516 30.9302 17.0361 30.974 17.0208L30.9749 17.0199L31.0436 16.996L31.0444 16.9951C31.09 16.9789 31.1347 16.9618 31.1785 16.9447L31.2428 16.9217C31.291 16.9037 31.3381 16.8841 31.3854 16.8661L31.4163 16.8542C32.9365 18.631 33.7705 20.8759 33.7705 23.2192C33.7705 28.6393 29.3378 33.0489 23.8882 33.0489ZM42.5226 49.1437H5.25381C7.47661 40.8533 15.1972 34.9095 23.8882 34.9095C32.5792 34.9095 40.3006 40.8533 42.5226 49.1437ZM44.4001 17.2019L43.5051 12.6197C43.5043 12.6155 43.5026 12.6103 43.5017 12.606C43.6107 12.3634 43.6675 12.0995 43.6675 11.8286C43.6675 10.9864 43.1178 10.2705 42.3551 10.016V5.97966C42.3551 5.81651 42.2881 5.66958 42.1799 5.56365C42.1043 5.44491 41.9875 5.35265 41.844 5.3125L24.0814 0.33056C24.0179 0.313475 23.9526 0.305787 23.8882 0.310058C23.8238 0.305787 23.7585 0.313475 23.6958 0.33056L5.93147 5.3125C5.67896 5.3834 5.50547 5.61235 5.50547 5.87374C5.50547 6.13428 5.67896 6.36322 5.93147 6.43412L12.8369 8.3707V13.8934C12.8369 13.9267 12.8404 13.96 12.8455 13.9917C12.9537 14.9911 14.1914 15.8231 15.252 16.3587C13.6872 18.303 12.8343 20.7111 12.8343 23.2192C12.8343 28.3933 16.446 32.7431 21.2935 33.9066C19.8111 34.0936 18.3569 34.4405 16.9484 34.9454C14.8012 35.7159 12.8094 36.8341 11.0281 38.2683C7.45771 41.1429 4.93946 45.1663 3.93542 49.5982C3.89591 49.7707 3.938 49.9518 4.04965 50.0902C4.15959 50.2277 4.32879 50.3089 4.50658 50.3089H43.2706C43.4485 50.3089 43.6168 50.2277 43.7276 50.0902C43.8392 49.9518 43.8805 49.7707 43.8418 49.5982C42.8378 45.1663 40.3187 41.1429 36.7491 38.2683C34.9669 36.8341 32.9752 35.7159 30.828 34.9454C29.4203 34.4405 27.9653 34.0936 26.4829 33.9066C31.3304 32.7431 34.942 28.3933 34.942 23.2192C34.942 20.7111 34.0883 18.303 32.5243 16.3587C33.5841 15.8231 34.8218 14.9911 34.9317 13.9933C34.9361 13.9609 34.9394 13.9275 34.9394 13.8934V8.3707L41.1844 6.6195V9.99974C40.3968 10.2389 39.8223 10.9684 39.8223 11.8286C39.8223 12.1345 39.8952 12.4309 40.0327 12.6974L39.1394 17.2001C39.106 17.371 39.1506 17.5487 39.2623 17.6828C39.373 17.8169 39.5388 17.8955 39.714 17.8955H43.8255C43.9999 17.8955 44.1665 17.8178 44.2773 17.6836C44.388 17.5487 44.4336 17.3728 44.4001 17.2019Z" fill="#164ACF"/>
</g>
</g>
</g>
<defs>
<clipPath id="clip0_5_340">
<rect width="50" height="50" fill="white" transform="translate(-0.970703 0.309143)"/>
</clipPath>
<clipPath id="clip1_5_340">
<rect width="40.2174" height="50" fill="white" transform="translate(3.9209 0.309143)"/>
</clipPath>
</defs>
</svg>
